<mxfile host="app.diagrams.net" modified="2024-01-10T13:17:10.404Z" agent="Mozilla/5.0 (Windows NT 10.0; Win64; x64; rv:121.0) Gecko/20100101 Firefox/121.0" etag="Qxh910LTMjafHjSwSbhE" version="22.1.16" type="github">
  <diagram name="Page-1" id="Mh2YPF9yRmNajynWcRfI">
    <mxGraphModel dx="2049" dy="1077" grid="1" gridSize="10" guides="1" tooltips="1" connect="1" arrows="1" fold="1" page="1" pageScale="1" pageWidth="827" pageHeight="1169" math="0" shadow="0">
      <root>
        <mxCell id="0" />
        <mxCell id="1" parent="0" />
        <mxCell id="etJidEIOSkk0J5LgylT1-3" value="" style="edgeStyle=orthogonalEdgeStyle;rounded=0;orthogonalLoop=1;jettySize=auto;html=1;fillColor=#f8cecc;strokeColor=#b85450;" edge="1" parent="1" source="etJidEIOSkk0J5LgylT1-1" target="etJidEIOSkk0J5LgylT1-2">
          <mxGeometry relative="1" as="geometry" />
        </mxCell>
        <mxCell id="etJidEIOSkk0J5LgylT1-1" value="RFP-1367" style="ellipse;whiteSpace=wrap;html=1;aspect=fixed;fillColor=#e1d5e7;strokeColor=#9673a6;fontFamily=Lucida Console;" vertex="1" parent="1">
          <mxGeometry x="370" y="350" width="80" height="80" as="geometry" />
        </mxCell>
        <mxCell id="etJidEIOSkk0J5LgylT1-5" value="" style="edgeStyle=orthogonalEdgeStyle;rounded=0;orthogonalLoop=1;jettySize=auto;html=1;fillColor=#f8cecc;strokeColor=#b85450;" edge="1" parent="1" source="etJidEIOSkk0J5LgylT1-2" target="etJidEIOSkk0J5LgylT1-4">
          <mxGeometry relative="1" as="geometry" />
        </mxCell>
        <mxCell id="etJidEIOSkk0J5LgylT1-2" value="On form that generate labels you can change the quantity of products" style="whiteSpace=wrap;html=1;fontFamily=Lucida Console;fillColor=#f8cecc;strokeColor=#b85450;" vertex="1" parent="1">
          <mxGeometry x="190" y="340" width="120" height="100" as="geometry" />
        </mxCell>
        <mxCell id="etJidEIOSkk0J5LgylT1-4" value="When the quantity changes need to keep precoVenda of each product correctly and only change for the one product user is changing" style="whiteSpace=wrap;html=1;fontFamily=Lucida Console;fillColor=#f8cecc;strokeColor=#b85450;" vertex="1" parent="1">
          <mxGeometry x="160" y="110" width="180" height="130" as="geometry" />
        </mxCell>
      </root>
    </mxGraphModel>
  </diagram>
</mxfile>
